<svg version="1.2" xmlns="http://www.w3.org/2000/svg" viewBox="0 0 1143 188" width="1143" height="188">
	<title>template</title>
	<style>
		.s0 { display: none;fill: #80e622 } 
		.s1 { display: none;fill: #192e05 } 
		.s2 { display: none;fill: #ffffff } 
		.s3 { fill: #0086f8 } 
		.s4 { fill: #ff4131 } 
		.s5 { fill: #ffbd00 } 
		.s6 { fill: #00aa4b } 
	</style>
	<path id="Background" class="s0" d="m-72-265h1280v720h-1280z"/>
	<path id="Border" fill-rule="evenodd" class="s1" d="m-72-265h1280v720h-1280zm30 30v660h1220v-660z"/>
	<path id="What a beautiful day." class="s2" aria-label="What a beautiful day."  d="m425.6 138c0.1-0.3 1.9-5.1 2.5-8.1 0.5 2.4 2.4 8.1 2.4 8.1h1.8c0.4-2.3 1.8-13.6 2.5-16.9l-2.1-0.4c-1.7 9.1-1.2 9.6-1.6 13.3-0.8-2.4-1.4-6.3-1.9-8.8-0.4 0.2-1.6 0.2-2.2 0.2-0.1 0.9-1 5.6-1.9 8.7-0.6-4.1-0.1-5-1.7-13.5l-2.1 0.4c0.7 3.4 2 14.8 2.6 17zm19.4-7.6v4.9c0 1.6 0.9 2.3 2 2.9l1.1-1.5c-0.7-0.5-1.1-0.9-1.1-1.6 0-1.5 0-2.5 0-4.7v-0.9c0-1.4 0-2.4-1-3.6-1-1.2-2.5-1.3-4.1-1.3-1.3 0-2.3 0.5-3.1 1v-6.1h-2.1c0 0 0 9.2 0 15.8 0 1 0 1.6-0.2 2.6l2.1 0.1c0.1-0.6 0.2-1.6 0.2-2.6v-7c0.4-0.9 1.7-1.8 3-1.8 2.7 0 3.2 0.8 3.2 3.8zm7.3 3.5c0-1.6 1.5-2.5 3.3-2.5 1.4 0 2.4 0.3 3.1 0.8v1.3c-0.3 0.5-1.7 2.6-4.5 2.6-1.2 0-1.9-0.8-1.9-2.2zm8.5-0.1v-4.3c0-3-2.1-5.1-5.2-5.1-2.4 0-4.2 0.8-5.4 3.2l1.7 1.1c1-1.9 1.9-2.3 3.7-2.3 2.2 0 3.1 1.2 3.1 3.7-0.7-0.4-1.5-0.6-3.2-0.6-1.5 0-2.9 0.3-4.1 1.6-0.8 0.8-1.2 1.9-1.2 2.9 0 2.2 1.8 4.1 4 4.1 2.6 0 4-1.2 5-2.2 0.2 1.4 1 1.7 1.7 2.2l1.1-1.5c-0.4-0.3-0.9-0.6-1-0.9-0.2-0.2-0.2-1.4-0.2-1.9zm7.1-1.6c0-1.3 0.1-3 0.2-5.7 0.6 0 0.9 0 1.5 0h4.2v-1.9h-0.2c0 0-2 0-4 0h-1.6c0.1-0.9 0.1-2.1 0.1-3h-2.1c0 0.9 0 2.1 0 3.1h-0.2c-0.5 0-1.1 0-1.4 0.1l0.3 1.9c0.3-0.1 0.7-0.1 1.1-0.1h0.2c-0.1 2.5-0.1 4.3-0.2 5.6v0.6c0 1.1 0.1 2.1 0.5 3.1 1 1.9 2.6 2.2 5 2.2 1.1 0 2.1-0.1 2.8-0.6 1.5-0.8 1.8-2 1.9-2.4l-1.6-0.8c-0.1 0.3-0.4 1-1.1 1.4-0.3 0.2-1.2 0.3-2 0.3-0.2 0-1.2 0-1.5 0-1.4-0.1-1.9-1.5-1.9-3.2zm26.3 1.6c0-1.5 1.6-2.5 3.4-2.5 1.3 0 2.3 0.4 3.1 0.8v1.3c-0.4 0.5-1.8 2.6-4.5 2.6-1.3 0-2-0.8-2-2.2zm8.5-0.1v-4.3c0-3-2-5-5.2-5-2.4 0-4.1 0.8-5.4 3.2l1.7 1c1.1-1.8 1.9-2.2 3.7-2.2 2.2 0 3.2 1.2 3.2 3.7-0.8-0.5-1.6-0.7-3.2-0.7-1.6 0-2.9 0.3-4.2 1.6-0.8 0.8-1.2 2-1.2 3 0 2.1 1.8 4 4.1 4 2.6 0 3.9-1.1 4.9-2.1 0.3 1.3 1.1 1.6 1.7 2.2l1.1-1.6c-0.3-0.3-0.8-0.6-1-0.9-0.2-0.2-0.2-1.4-0.2-1.9zm26.2-2.1c0 2.7-0.7 4.4-2.9 4.4-1.8 0-2.5-0.6-3.4-2.1v-5.8c0.7-0.7 1.5-1.6 2.7-1.6 2.2 0 3.6 1.4 3.6 5.1zm2.1 0.3c0-4.5-1.6-7.4-5.9-7.4-1.3 0-1.9 0.4-2.5 0.9v-2.7c0-1.2-0.1-2.4-0.2-3.4l-2.1 0.1c0.1 0.9 0.2 2 0.2 3.3 0 3.7 0 8.4 0 11.7v0.3c0 1.1-0.1 2.3-0.2 3.1l2.2 0.3c0-0.4 0.1-0.7 0.1-1.3 0.8 0.8 1.9 1.2 3.4 1.2 3.6 0 5-2.6 5-6.1zm5.1-1.6c0.1-2 1.4-3.8 3.7-3.8 1.8 0 3.1 1.3 3.3 3.4-1.9 0.2-5.3 0.4-7 0.4zm3.6-5.8c-3.7 0-5.6 2.9-5.6 6.6 0 4.2 1.9 7 5.8 7 3.2 0 4.7-1.8 5.2-2.4l-1.6-1.4c-0.5 0.7-1.6 1.7-3.5 1.7-2.7 0-3.9-1.7-3.9-3.7 2.4 0 5.4-0.2 9.1-0.4 0-0.1 0-0.3 0-0.6 0-1.8-0.5-6.8-5.5-6.8zm10.4 9.3c0-1.5 1.6-2.5 3.4-2.5 1.3 0 2.3 0.4 3.1 0.8v1.3c-0.4 0.5-1.8 2.6-4.5 2.6-1.3 0-2-0.8-2-2.2zm8.5-0.1v-4.3c0-3-2-5-5.2-5-2.4 0-4.1 0.8-5.4 3.2l1.7 1c1.1-1.8 1.9-2.2 3.7-2.2 2.2 0 3.2 1.2 3.2 3.7-0.8-0.5-1.6-0.7-3.2-0.7-1.6 0-2.9 0.3-4.2 1.6-0.8 0.8-1.2 2-1.2 3 0 2.1 1.8 4 4.1 4 2.6 0 3.9-1.1 4.9-2.1 0.3 1.3 1.1 1.6 1.7 2.2l1.1-1.6c-0.3-0.3-0.8-0.6-1-0.9-0.2-0.2-0.2-1.4-0.2-1.9zm14.3 4.4l1.1-1.6c-0.5-0.4-1.2-1-1.2-1.7v-10.3h-2.1v8.9c-0.5 1.2-1.4 1.5-2 1.9-0.7 0.4-1.2 0.5-2.1 0.6-0.5 0-1.2-0.1-1.4-0.3-0.3-0.2-0.6-0.5-0.7-1 0-4.8 0.1-8.9-0.2-10.1l-2.1 0.3c0.3 1.1 0.2 6.8 0.3 10.3 0 1.1 0.9 1.8 1.5 2.2 0.8 0.6 1.9 0.6 2.7 0.6h0.1c2 0 3.3-0.9 4.4-2.1 0.3 1.2 1 1.7 1.7 2.3zm6.8-5.9c0-1.4 0.1-3 0.2-5.7 0.6 0 0.9-0.1 1.5-0.1h4.2v-1.9h-0.2c0 0-2 0-4 0h-1.6c0.1-0.9 0.1-2.1 0.1-3h-2.1c0 0.9 0 2.2 0 3.1h-0.2c-0.5 0-1.1 0-1.4 0.1l0.3 2c0.3-0.1 0.7-0.2 1.1-0.2h0.2c-0.1 2.6-0.2 4.3-0.2 5.7v0.5c0 1.2 0 2.2 0.5 3.1 0.9 2 2.6 2.2 5 2.2 1.1 0 2.1-0.1 2.8-0.6 1.5-0.8 1.8-2 1.9-2.4l-1.6-0.7c-0.1 0.2-0.4 1-1.1 1.3-0.3 0.2-1.2 0.4-2 0.4-0.2 0-1.2-0.1-1.5-0.1-1.4-0.1-1.9-1.5-1.9-3.2zm13.4-12.8v3h3.1v-3zm1.3 5.2c-1.3 0-2.8 0.2-4.3 0.6l0.4 1.8c1.3-0.3 2.8-0.3 3.4-0.3v8.5c0 0.8 0.1 1.9 1.2 2.5 0.6 0.3 1.6 0.5 2.7 0.5 1.7 0 3.6-0.4 4.7-1.3l-0.9-1.5c-0.9 0.6-2.5 0.9-3.8 0.9-1.2 0-1.8 0-1.8-1.1 0 0 0-7 0-10.6zm15.9-3.3c2.7 0 3.5 0.2 4.2 1.5l1.7-1c-1.1-2.2-3.1-2.5-6-2.5-3.6 0-4 2.7-4 4.6 0 0.3 0 0.4 0 0.6h-1.9v2h1.9c0 2 0 11.1 0 11.5h2.1c0-0.1 0-9.4 0-11.5h4c0.7 0 1 0.1 1.3 0.2l0.4-1.9c-0.4-0.1-0.8-0.3-2.2-0.3-0.9 0-2.6 0-3.5 0v-0.5c0-1.4 0.1-2.7 2-2.7zm18.5 16.8l1-1.6c-0.5-0.4-1.1-1-1.2-1.7v-10.3h-2v8.9c-0.5 1.2-1.5 1.6-2.1 1.9-0.6 0.5-1.2 0.6-2.1 0.6-0.5 0-1.2-0.1-1.4-0.2-0.3-0.3-0.5-0.6-0.6-1-0.1-4.9 0-9-0.3-10.2l-2.1 0.4c0.4 1 0.3 6.7 0.3 10.2 0 1.1 0.9 1.9 1.5 2.3 0.8 0.5 1.9 0.5 2.7 0.5h0.1c2 0 3.3-0.9 4.4-2 0.3 1.1 1 1.6 1.8 2.2zm7.5-18.9c-1.4 0-2.9 0-4.4 0.4l0.3 1.8c0.9-0.1 1.8-0.2 2.6-0.2 0.3 0 0.7 0 0.9 0l0.1 14c0 0.8 0.1 1.8 1.2 2.5 0.6 0.3 1.6 0.5 2.7 0.5 1.6 0 3.5-0.4 4.7-1.4l-0.9-1.5c-1 0.7-2.6 1-3.8 1-1.2 0-1.8-0.1-1.9-1.1 0 0 0-12.4 0-16zm25.5 12.5c0-3.8 0.9-5.2 3-5.2 1.2 0 2.6 1 3.3 1.6v5.8c-0.9 1.5-1.5 2.1-3.4 2.1-2.2 0-2.9-1.7-2.9-4.3zm8.4 2.7v-11.6c0-1.2-0.1-2.5-0.2-3.4l-2.1 0.1c0.1 0.9 0.2 2 0.2 3.2v2.7c-0.6-0.4-1.8-0.9-3.1-0.9-4.3 0-5.3 3-5.3 7.4 0 3.5 1.4 6.1 5 6.1 1.5 0 2.6-0.4 3.4-1.2 0 0.6 0.1 0.9 0.2 1.3l2.1-0.2c-0.1-0.9-0.2-2-0.2-3.1zm5.6-0.6c0-1.6 1.6-2.5 3.4-2.5 1.4 0 2.3 0.3 3.1 0.8v1.2c-0.4 0.6-1.7 2.7-4.5 2.7-1.2 0-2-0.8-2-2.2zm8.6-0.1v-4.3c0-3-2.1-5.1-5.3-5.1-2.4 0-4.1 0.8-5.4 3.2l1.7 1.1c1.1-1.9 1.9-2.3 3.7-2.3 2.3 0 3.2 1.2 3.2 3.7-0.7-0.4-1.6-0.6-3.2-0.6-1.6 0-2.9 0.3-4.2 1.5-0.7 0.9-1.1 2-1.1 3 0 2.2 1.7 4.1 4 4.1 2.6 0 3.9-1.2 5-2.2 0.2 1.4 1 1.7 1.7 2.2l1.1-1.5c-0.4-0.3-0.9-0.6-1.1-0.9-0.1-0.2-0.1-1.4-0.1-1.9zm6.7 7.1c-1 0-1.6-0.6-1.6-2.9h-2c0 3.6 1.4 5 3.7 5 2 0 3-1.4 3.7-3.1 1.7-4.1 3.1-8.5 3.9-13.1 0.1-0.7 0.2-1.5 0.2-2.2h-2.1c-0.1 2.9-1 6.8-1.9 9.6-1.5-4.3-3.7-9.2-5.9-9.6-0.3 0-1-0.1-1.4-0.1v2.1c0.5 0 1 0 1.4 0.4 1.8 1.6 3.4 5.8 4.7 10.1-0.5 1.4-1.3 3.8-2.7 3.8zm14.8-6.4v3.5h3.3v-3.5z"/>
	<path id="videojocs.cat" class="s3" aria-label="videojocs.cat"  d="m50 147.4q-7 0-10.4-7.8l-34.6-80.8q-2-4.6-0.2-8 1.8-3.4 7.2-3.4 5.6 0 8.2 6.4l30.2 73.8 30.6-73.8q1.4-3.6 3.2-5 1.8-1.4 5.2-1.4 4.6 0 6.2 3.4 1.6 3.4-0.2 7.8l-35 81q-3.2 7.8-10.4 7.8zm273.6 0.4q-23 0-36.4-13.4-13.4-13.6-13.4-36.8 0-15 6-26.4 6-11.6 16.4-17.8 10.6-6.4 24.4-6.4 19.8 0 31 12.8 11.2 12.6 11.2 34.8 0 6.2-7 6.2h-66.2q0.8 16.6 9.6 25.4 8.8 8.6 24.4 8.6 6.6 0 13.4-1.6 6.8-1.8 13.2-6.2 4.6-3 7.6-1.2 3.2 1.8 3.2 5.6 0.2 3.6-4 6.4-6.6 4.8-15.8 7.4-9 2.6-17.6 2.6zm-2.6-88.8q-13.8 0-21.8 8.6-8 8.6-9.4 22.6h59q-0.6-14.8-7.8-23-7-8.2-20-8.2zm264 88.8q-14.2 0-24.6-6.2-10.4-6.2-16.2-17.4-5.6-11.4-5.6-26.8 0-15.4 5.6-26.6 5.8-11.4 16.2-17.6 10.4-6.2 24.6-6.2 14 0 24.4 6.2 10.6 6.2 16.2 17.6 5.8 11.2 5.8 26.6 0 15.4-5.8 26.8-5.6 11.2-16.2 17.4-10.4 6.2-24.4 6.2zm0-13q13.6 0 21.8-9.6 8.2-9.8 8.2-27.8 0-18.2-8.2-27.8-8.2-9.6-21.8-9.6-13.8 0-22 9.6-8 9.6-8 27.8 0 18 8 27.8 8.2 9.6 22 9.6zm341 13q-14.6 0-25.2-6.2-10.6-6.4-16.4-17.8-5.6-11.6-5.6-27 0-23.2 12.6-36.4 12.6-13.4 34.6-13.4 7.2 0 15 2.4 7.8 2.2 14.2 7.4 3.4 2.4 2.8 6-0.4 3.6-3.4 5.4-2.8 1.8-6.6-0.8-5.4-4-10.8-5.6-5.2-1.6-10.2-1.6-15.2 0-23.4 9.6-8.2 9.4-8.2 27.2 0 17.4 8.2 27.6 8.2 10 23.4 10 5 0 10.2-1.6 5.4-1.6 10.8-5.6 3.8-2.6 6.6-0.6 2.8 1.8 3 5.4 0.4 3.6-2.8 5.8-6.4 5.2-14 7.6-7.6 2.2-14.8 2.2z"/>
	<path id="videojocs.cat" class="s4" aria-label="videojocs.cat"  d="m124.8 25.4q-10.6 0-10.6-10 0-9.8 10.6-9.8 10.6 0 10.6 9.8 0 10-10.6 10zm0 121.6q-8 0-8-8.8v-81.8q0-8.6 8-8.6 8.2 0 8.2 8.6v81.8q0 8.8-8.2 8.8zm381.2-121.6q-10.6 0-10.6-10 0-9.8 10.6-9.8 10.8 0 10.8 9.8 0 10-10.8 10zm-27.2 158.8q-5 0.2-7-2.8-1.8-3-0.6-6.2 1.2-3.4 5.2-3.6 11-0.6 16.2-5.8 5.4-5.4 5.4-16.8v-93.4q0-8.2 8.2-8.2 8 0 8 8.2v92.2q0 18.4-9.2 27-9 8.6-26.2 9.4zm372.6-37.4q-5 0-8-3-3-3.2-3-8 0-4.8 3-7.8 3-3.2 8-3.2 5 0 7.8 3.2 3 3 3 7.8 0 4.8-3 8-2.8 3-7.8 3z"/>
	<path id="videojocs.cat" class="s5" aria-label="videojocs.cat"  d="m200.2 147.8q-13 0-22.8-6.2-9.6-6.2-15-17.4-5.2-11.4-5.2-26.8 0-15.6 5.2-26.8 5.4-11.4 15-17.4 9.8-6.2 22.8-6.2 11.4 0 20 5 8.8 5 13 13.8v-54q0-8.2 8.2-8.2 8 0 8 8.2v127.2q0 8.4-8 8.4-8 0-8-8.4v-10.4q-4.4 9-13.2 14.2-8.6 5-20 5zm3.4-13q13.6 0 21.8-9.6 8.2-9.8 8.2-27.8 0-18.2-8.2-27.8-8.2-9.6-21.8-9.6-13.8 0-22 9.6-8 9.6-8 27.8 0 18 8 27.8 8.2 9.6 22 9.6zm493.4 13q-14.6 0-25.2-6.2-10.6-6.4-16.4-17.8-5.6-11.6-5.6-27 0-23.2 12.6-36.4 12.6-13.4 34.6-13.4 7.2 0 15 2.4 7.8 2.2 14.2 7.4 3.4 2.4 2.8 6-0.4 3.6-3.4 5.4-2.8 1.8-6.6-0.8-5.4-4-10.8-5.6-5.2-1.6-10.2-1.6-15.2 0-23.4 9.6-8.2 9.4-8.2 27.2 0 17.4 8.2 27.6 8.2 10 23.4 10 5 0 10.2-1.6 5.4-1.6 10.8-5.6 3.8-2.6 6.6-0.6 2.8 1.8 3 5.4 0.4 3.6-2.8 5.8-6.4 5.2-14 7.6-7.6 2.2-14.8 2.2zm310.2 0q-10 0-18-3.8-7.8-4-12.4-10.8-4.6-6.8-4.6-15.2 0-10.6 5.4-16.8 5.6-6.2 18.2-8.8 12.8-2.8 34.8-2.8h6.4v-6.2q0-12.4-5.2-17.8-5-5.6-16.2-5.6-7 0-14.2 1.8-7 1.8-14.6 5.8-3.4 1.8-5.8 0.8-2.2-1.2-3.2-3.6-0.8-2.6 0-5.2 1-2.8 4-4.2 8.6-4.4 17.2-6.4 8.8-2 16.6-2 18.8 0 27.8 9.2 9.2 9.2 9.2 28.6v54.2q0 8.4-7.4 8.4-7.8 0-7.8-8.4v-9.8q-3.8 8.6-11.8 13.6-7.8 5-18.4 5zm2.6-12.2q12 0 19.6-8.2 7.6-8.4 7.6-21.2v-6h-6.2q-16.2 0-25.6 1.6-9.2 1.4-13 5.2-3.6 3.6-3.6 10 0 8.2 5.6 13.4 5.8 5.2 15.6 5.2z"/>
	<path id="videojocs.cat" class="s6" aria-label="videojocs.cat"  d="m426.6 147.8q-14.2 0-24.6-6.2-10.4-6.2-16.2-17.4-5.6-11.4-5.6-26.8 0-15.4 5.6-26.6 5.8-11.4 16.2-17.6 10.4-6.2 24.6-6.2 14 0 24.4 6.2 10.6 6.2 16.2 17.6 5.8 11.2 5.8 26.6 0 15.4-5.8 26.8-5.6 11.2-16.2 17.4-10.4 6.2-24.4 6.2zm0-13q13.6 0 21.8-9.6 8.2-9.8 8.2-27.8 0-18.2-8.2-27.8-8.2-9.6-21.8-9.6-13.8 0-22 9.6-8 9.6-8 27.8 0 18 8 27.8 8.2 9.6 22 9.6zm354.6 13q-9 0-18.2-2.2-9-2.4-16.8-7.6-3.6-2.2-3.6-5.6 0.2-3.6 2.8-5.6 2.6-2 6.6 0 7.8 4.8 15 6.8 7.4 1.8 14.6 1.8 11.4 0 17.2-4.2 5.8-4.2 5.8-11.4 0-5.6-3.8-8.8-3.8-3.4-12-5.2l-18.2-4q-24.8-5.4-24.8-25.6 0-13.2 10.4-21.2 10.6-8 27.6-8 8.6 0 16.6 2.4 8 2.2 14.4 7.2 3.4 2.4 3 5.8-0.4 3.4-3.2 5.4-2.6 1.8-6.4-0.6-6-4-12.2-5.8-6.2-2-12.2-2-11.2 0-17 4.4-5.8 4.4-5.8 11.6 0 11.2 14.8 14.4l18.2 3.8q12.8 2.8 19.4 9 6.6 6 6.6 16.4 0 13.4-10.6 21.2-10.6 7.6-28.2 7.6zm340.4 0q-17.2 0-25.8-9-8.6-9.2-8.6-26.4v-51h-13.4q-7 0-7-6.4 0-6.2 7-6.2h13.4v-23q0-8.2 8.2-8.2 8 0 8 8.2v23h25.2q7 0 7 6.2 0 6.4-7 6.4h-25.2v49.4q0 11.4 4.8 17.4 4.8 5.8 15.6 5.8 3.8 0 6.4-0.8 2.6-0.8 4.6-0.8 1.8-0.2 3 1.2 1.2 1.4 1.2 4.8 0 2.4-1 4.4-0.8 2-3 2.8-2.4 0.8-6.4 1.6-3.8 0.6-7 0.6z"/>
</svg>